<svg id="Ebene_2" xmlns="http://www.w3.org/2000/svg" viewBox="0 0 169.05 143.87"><defs><style>.cls-1{fill:#005696;}.cls-2{fill:#fff;}.cls-3{fill:#e10026;}</style></defs><g id="Ebene_1-2"><polygon class="cls-3" points="0 .37 0 48.27 46.07 .37 0 .37"/><path class="cls-1" d="M129.04,.37l-18.72,58.19c-3.67-5.87-8.44-10.46-14.32-13.4-5.87-2.94-13.22-4.4-21.11-4.4-3.49,0-5.51,.18-8.44,.55-2.94,.37-7.34,1.47-11.01,2.94-11.56,4.77-22.39,14.13-29.55,26.98-7.16,13.03-9.55,27.17-7.34,39.46,2.2,12.3,8.81,22.94,19.27,28.63,10.46,5.87,22.94,5.87,34.51,1.1,6.24-2.57,12.3-6.42,17.8-11.56v.18l-4.22,12.48h38.36c1.47-6.24,3.49-13.4,5.87-21.48,.18-.73,.37-1.47,.55-1.83L169.05,0h-40.02V.37Z"/><path class="cls-2" d="M97.47,99.67c-6.06,15.79-19.82,25.15-30.47,21.11-10.65-4.22-14.32-20.19-8.26-35.98,6.06-15.79,19.82-25.15,30.47-21.11,10.83,4.22,14.5,20.37,8.26,35.98"/></g></svg>
